# xmcd CD database file
#
# Track frame offsets:
#	150
#	19991
#	36306
#	52350
#	65092
#	77308
#	89294
#	104594
#	118242
#	129136
#	145477
#
# Disc length: 2151 seconds
#
# Revision: 0
# Processed by: cddbd v1.5.2PL0 Copyright (c) Steve Scherf et al.
# Submitted via: CDex 1.97
#
DISCID=a008650b
DTITLE=Eliem - Eliem The Album
DYEAR=2016
DGENRE=New Age
TTITLE0=The light of day
TTITLE1=Avatar
TTITLE2=At the end of Days
TTITLE3=The Road is long
TTITLE4=Love is our Destiny
TTITLE5=Mother
TTITLE6=Departure
TTITLE7=Wedding Song
TTITLE8=Shivoham
TTITLE9=Avatar Devotional Version
TTITLE10=Tell me why
EXTD=YEAR: 2016
EXTT0=
EXTT1=
EXTT2=
EXTT3=
EXTT4=
EXTT5=
EXTT6=
EXTT7=
EXTT8=
EXTT9=
EXTT10=
PLAYORDER=
